# xmcd
#
# Track frame offsets:
#	150
#	12830
#	25965
#	37427
#	49826
#	62962
#	76456
#	88079
#	99281
#	113858
#	126031
#	139349
#	152250
#	165086
#	178119
#	187668
#	197942
#	210386
#	221311
#	232747
#
# Disc length: 3291 seconds
#
# Revision: 0
# Processed by: cddbd v1.5.2PL0 Copyright (c) Steve Scherf et al.
# Submitted via: EasyCDDAExtractor 12.0.1.1
#
DISCID=040cd914
DTITLE=Pride Charley - Songs Of Love - Sweet Country
DYEAR=2016
DGENRE=Country
TTITLE0=Too Weak To Let You Go
TTITLE1=She's Too Good To Be True
TTITLE2=She's That Kind
TTITLE3=You Were All The Good In Me
TTITLE4=Give A Lonely Heart A Home
TTITLE5=Good Hearted Woman
TTITLE6=I Love You More In Memory
TTITLE7=My Love Is Deep My Love Is Wide
TTITLE8=(Darlin' Think Of Me) Every Now And Then
TTITLE9=I'm Building Bridges
TTITLE10=Along The Mississippi
TTITLE11=Happiest Song On The Jukebox
TTITLE12=Shelter Of Your Eyes
TTITLE13=I'm Learning To Love Her
TTITLE14=Don't Fight The Feelings Of Love
TTITLE15=Just To Be Loved By You
TTITLE16=Tennessee Girl
TTITLE17=Love Unending
TTITLE18=Pass Me By
TTITLE19=Shoulder To Cry On
EXTD=
EXTT0=
EXTT1=
EXTT2=
EXTT3=
EXTT4=
EXTT5=
EXTT6=
EXTT7=
EXTT8=
EXTT9=
EXTT10=
EXTT11=
EXTT12=
EXTT13=
EXTT14=
EXTT15=
EXTT16=
EXTT17=
EXTT18=
EXTT19=
PLAYORDER=
